<svg xmlns="http://www.w3.org/2000/svg" viewBox="0 0 64 64" role="img" aria-label="MyDay mascot favicon">
  <defs>
    <linearGradient id="mascot-body" x1="0%" y1="0%" x2="100%" y2="100%">
      <stop offset="0%" stop-color="#ffe38a" />
      <stop offset="100%" stop-color="#ffb347" />
    </linearGradient>
    <linearGradient id="mascot-leaf" x1="0%" y1="0%" x2="100%" y2="100%">
      <stop offset="0%" stop-color="#54d39b" />
      <stop offset="100%" stop-color="#1f9d74" />
    </linearGradient>
  </defs>

  <rect width="64" height="64" rx="18" fill="#fff7df" />
  <circle cx="32" cy="34" r="24" fill="#fff0c2" />
  <path fill="url(#mascot-leaf)" d="M37 8c4-5 10-6 14-4-1 6-5 10-13 11l-5-1 4-6Z" />
  <path d="M32 19c2-4 4-8 7-11" fill="none" stroke="#1f9d74" stroke-linecap="round" stroke-width="2.5" />
  <path fill="url(#mascot-body)" d="M32 16c10 0 18 8 18 18s-8 16-18 16-18-6-18-16 8-18 18-18Z" />
  <path d="M32 22c7 0 12 5 12 11s-5 10-12 10-12-4-12-10 5-11 12-11Z" fill="#fff4d4" />
  <circle cx="24.5" cy="33" r="2.5" fill="#2a2a2a" />
  <circle cx="25.5" cy="32" r="0.8" fill="#fff" />
  <circle cx="39.5" cy="33" r="2.5" fill="#2a2a2a" />
  <circle cx="40.5" cy="32" r="0.8" fill="#fff" />
  <path d="M27.5 39c1.7 2.1 3.8 3.2 4.5 3.2s2.8-1.1 4.5-3.2" fill="none" stroke="#8b4f2f" stroke-linecap="round" stroke-width="2.3" />
</svg>
